<?xml version="1.0" encoding="utf-8"?>
<!-- Generator: Adobe Illustrator 16.0.0, SVG Export Plug-In . SVG Version: 6.00 Build 0)  -->
<!DOCTYPE svg PUBLIC "-//W3C//DTD SVG 1.1//EN" "http://www.w3.org/Graphics/SVG/1.1/DTD/svg11.dtd">
<svg version="1.1" id="Layer_1" xmlns="http://www.w3.org/2000/svg" xmlns:xlink="http://www.w3.org/1999/xlink" x="0px" y="0px"
	 width="48px" height="48px" viewBox="0 0 48 48" enable-background="new 0 0 48 48" xml:space="preserve">
<path fill="#7AD3AB" d="M45.5,22l-13.583,1H1v6.537C7,30.818,11.421,31.5,16.82,31.5c5.169,0,10.18-0.629,15.18-1.807V25l13.5-1
	c0.553,0,1-0.447,1-1S46.053,22,45.5,22z"/>
<path fill="#7AD3AB" d="M16.375,34.75c0,0.76-0.616,1.375-1.375,1.375s-1.375-0.615-1.375-1.375S15,31.938,15,31.938
	S16.375,33.99,16.375,34.75z"/>
<path fill="#7AD3AB" d="M19.375,34.75c0,0.76-0.616,1.375-1.375,1.375s-1.375-0.615-1.375-1.375S18,32.542,18,32.542
	S19.375,33.99,19.375,34.75z"/>
<path fill="#7AD3AB" d="M22.375,34.75c0,0.76-0.616,1.375-1.375,1.375s-1.375-0.615-1.375-1.375S21,31.938,21,31.938
	S22.375,33.99,22.375,34.75z"/>
<path fill="#7AD3AB" d="M25.375,34.75c0,0.76-0.616,1.375-1.375,1.375s-1.375-0.615-1.375-1.375S24,31.5,24,31.5
	S25.375,33.99,25.375,34.75z"/>
<path fill="#7AD3AB" d="M28.375,34.75c0,0.76-0.616,1.375-1.375,1.375s-1.375-0.615-1.375-1.375S27,32.25,27,32.25
	S28.375,33.99,28.375,34.75z"/>
<path fill="#7AD3AB" d="M7.375,34.75c0,0.76-0.616,1.375-1.375,1.375S4.625,35.51,4.625,34.75S6,32.25,6,32.25
	S7.375,33.99,7.375,34.75z"/>
<path fill="#7AD3AB" d="M10.375,34.75c0,0.76-0.616,1.375-1.375,1.375S7.625,35.51,7.625,34.75S9,31.938,9,31.938
	S10.375,33.99,10.375,34.75z"/>
<path fill="#7AD3AB" d="M13.375,34.75c0,0.76-0.616,1.375-1.375,1.375s-1.375-0.615-1.375-1.375S12,31.667,12,31.667
	S13.375,33.99,13.375,34.75z"/>
<path fill="#7AD3AB" d="M28.5,37c0.553,0,1,0.447,1,1s-0.447,1-1,1h-24c-0.553,0-1-0.447-1-1s0.447-1,1-1H28.5z"/>
<path fill="none" stroke="#7AD3AB" stroke-width="1.5" stroke-linecap="round" stroke-miterlimit="10" d="M16.375,21
	c-1.875-1.75-3.125-4.625,0.25-7.125s2.5-6.25-0.25-7.375"/>
<path fill="none" stroke="#7AD3AB" stroke-width="1.5" stroke-linecap="round" stroke-miterlimit="10" d="M10.375,21
	c-1.875-1.75-3.125-4.625,0.25-7.125s2.5-6.25-0.25-7.375"/>
<path fill="none" stroke="#7AD3AB" stroke-width="1.5" stroke-linecap="round" stroke-miterlimit="10" d="M22.375,21
	c-1.875-1.75-3.125-4.625,0.25-7.125s2.5-6.25-0.25-7.375"/>
</svg>
