<?xml version="1.0" encoding="utf-8"?>
<!-- Generator: Adobe Illustrator 16.0.0, SVG Export Plug-In . SVG Version: 6.00 Build 0)  -->
<!DOCTYPE svg PUBLIC "-//W3C//DTD SVG 1.1//EN" "http://www.w3.org/Graphics/SVG/1.1/DTD/svg11.dtd">
<svg version="1.1" id="Layer_1" xmlns="http://www.w3.org/2000/svg" xmlns:xlink="http://www.w3.org/1999/xlink" x="0px" y="0px"
	 width="48px" height="48px" viewBox="0 0 48 48" enable-background="new 0 0 48 48" xml:space="preserve">
<g>
	<path fill="#545454" d="M45.5,22l-13.583,1H1v6.537C7,30.818,11.421,31.5,16.82,31.5c5.169,0,10.18-0.629,15.18-1.807V25l13.5-1
		c0.553,0,1-0.447,1-1S46.053,22,45.5,22z"/>
	<path fill="#545454" d="M16.375,34.75c0,0.76-0.616,1.375-1.375,1.375s-1.375-0.615-1.375-1.375S15,31.938,15,31.938
		S16.375,33.99,16.375,34.75z"/>
	<path fill="#545454" d="M19.375,34.75c0,0.76-0.616,1.375-1.375,1.375s-1.375-0.615-1.375-1.375S18,32.542,18,32.542
		S19.375,33.99,19.375,34.75z"/>
	<path fill="#545454" d="M22.375,34.75c0,0.76-0.616,1.375-1.375,1.375s-1.375-0.615-1.375-1.375S21,31.938,21,31.938
		S22.375,33.99,22.375,34.75z"/>
	<path fill="#545454" d="M25.375,34.75c0,0.76-0.616,1.375-1.375,1.375s-1.375-0.615-1.375-1.375S24,31.5,24,31.5
		S25.375,33.99,25.375,34.75z"/>
	<path fill="#545454" d="M28.375,34.75c0,0.76-0.616,1.375-1.375,1.375s-1.375-0.615-1.375-1.375S27,32.25,27,32.25
		S28.375,33.99,28.375,34.75z"/>
	<path fill="#545454" d="M7.375,34.75c0,0.76-0.616,1.375-1.375,1.375S4.625,35.51,4.625,34.75S6,32.25,6,32.25
		S7.375,33.99,7.375,34.75z"/>
	<path fill="#545454" d="M10.375,34.75c0,0.76-0.616,1.375-1.375,1.375S7.625,35.51,7.625,34.75S9,31.938,9,31.938
		S10.375,33.99,10.375,34.75z"/>
	<path fill="#545454" d="M13.375,34.75c0,0.76-0.616,1.375-1.375,1.375s-1.375-0.615-1.375-1.375S12,31.667,12,31.667
		S13.375,33.99,13.375,34.75z"/>
	<path fill="#545454" d="M28.5,37c0.553,0,1,0.447,1,1s-0.447,1-1,1h-24c-0.553,0-1-0.447-1-1s0.447-1,1-1H28.5z"/>
	<path fill="#545454" d="M16.375,21.75c-0.184,0-0.367-0.067-0.512-0.202c-0.831-0.776-2.208-2.38-2.093-4.412
		c0.082-1.441,0.892-2.741,2.408-3.864c1.346-0.997,2.025-2.308,1.864-3.596c-0.139-1.111-0.869-2.039-1.952-2.482
		c-0.383-0.157-0.567-0.595-0.41-0.979c0.157-0.382,0.592-0.568,0.979-0.41c1.567,0.641,2.667,2.053,2.872,3.684
		c0.231,1.841-0.666,3.659-2.459,4.988c-1.141,0.846-1.748,1.769-1.803,2.744c-0.059,1.038,0.531,2.215,1.619,3.23
		c0.303,0.283,0.319,0.757,0.037,1.06C16.775,21.67,16.576,21.75,16.375,21.75z"/>
	<path fill="#545454" d="M10.375,21.75c-0.184,0-0.367-0.067-0.512-0.202c-0.831-0.776-2.208-2.38-2.093-4.412
		c0.082-1.441,0.892-2.741,2.408-3.864c1.346-0.997,2.025-2.308,1.864-3.596c-0.139-1.111-0.869-2.039-1.952-2.482
		C9.708,7.037,9.524,6.6,9.681,6.216c0.157-0.382,0.592-0.568,0.979-0.41c1.567,0.641,2.667,2.053,2.872,3.684
		c0.231,1.841-0.666,3.659-2.459,4.988c-1.141,0.846-1.748,1.769-1.803,2.744c-0.059,1.038,0.531,2.215,1.619,3.23
		c0.303,0.283,0.319,0.757,0.037,1.06C10.775,21.67,10.576,21.75,10.375,21.75z"/>
	<path fill="#545454" d="M22.375,21.75c-0.184,0-0.367-0.067-0.512-0.202c-0.831-0.776-2.208-2.38-2.093-4.412
		c0.082-1.441,0.892-2.741,2.408-3.864c1.346-0.997,2.025-2.308,1.864-3.596c-0.139-1.111-0.869-2.039-1.952-2.482
		c-0.383-0.157-0.567-0.595-0.41-0.979c0.157-0.382,0.592-0.568,0.979-0.41c1.567,0.641,2.667,2.053,2.872,3.684
		c0.23,1.841-0.666,3.659-2.46,4.988c-1.141,0.846-1.748,1.769-1.803,2.744c-0.059,1.038,0.531,2.215,1.619,3.23
		c0.303,0.283,0.319,0.757,0.037,1.06C22.775,21.67,22.576,21.75,22.375,21.75z"/>
</g>
</svg>
