<?xml version="1.0" encoding="utf-8"?>
<!-- Generator: Adobe Illustrator 16.0.0, SVG Export Plug-In . SVG Version: 6.00 Build 0)  -->
<!DOCTYPE svg PUBLIC "-//W3C//DTD SVG 1.1//EN" "http://www.w3.org/Graphics/SVG/1.1/DTD/svg11.dtd">
<svg version="1.1" id="Layer_1" xmlns="http://www.w3.org/2000/svg" xmlns:xlink="http://www.w3.org/1999/xlink" x="0px" y="0px"
	 width="48px" height="48px" viewBox="0 0 48 48" enable-background="new 0 0 48 48" xml:space="preserve">
<g>
	<circle fill="#7AD3AB" cx="25" cy="25" r="3.331"/>
	<path fill="#7AD3AB" d="M6.147,18.956c-1.016,0.314-1.98,0.718-2.89,1.194c-1.887,2.698-2.555,6.207-1.509,9.596
		c0.494,1.599,1.318,3.002,2.374,4.164c2.093-2.874,5.099-5.121,8.757-6.25c2.44-0.753,4.918-0.918,7.293-0.598
		c-0.271-0.633-0.422-1.33-0.422-2.062c0-1.383,0.546-2.632,1.42-3.57C16.976,18.408,11.469,17.313,6.147,18.956z"/>
</g>
<g>
	<circle fill="#7AD3AB" cx="24.778" cy="24.738" r="3.33"/>
	<path fill="#7AD3AB" d="M28.97,44.086c0.78,0.723,1.612,1.356,2.479,1.906c3.28,0.285,6.653-0.89,9.065-3.491
		c1.138-1.228,1.941-2.643,2.419-4.138c-3.535-0.376-6.984-1.855-9.792-4.458c-1.873-1.737-3.254-3.8-4.165-6.017
		c-0.413,0.551-0.94,1.03-1.574,1.396c-1.198,0.691-2.553,0.843-3.802,0.555C23.082,34.983,24.886,40.299,28.97,44.086z"/>
</g>
<g>
	<circle fill="#7AD3AB" cx="25.117" cy="24.63" r="3.331"/>
	<path fill="#7AD3AB" d="M39.777,11.325c0.236-1.036,0.369-2.073,0.411-3.099c-1.394-2.983-4.097-5.316-7.556-6.105
		c-1.632-0.371-3.259-0.359-4.793-0.026c1.442,3.249,1.885,6.976,1.035,10.709c-0.568,2.49-1.664,4.718-3.128,6.615
		c0.684,0.082,1.362,0.3,1.996,0.665c1.198,0.691,2.007,1.789,2.382,3.016C34.838,20.977,38.54,16.756,39.777,11.325z"/>
</g>
<circle fill="#7AD3AB" cx="25.117" cy="24.63" r="3.7"/>
</svg>
