<?xml version="1.0" encoding="utf-8"?>
<!-- Generator: Adobe Illustrator 16.0.0, SVG Export Plug-In . SVG Version: 6.00 Build 0)  -->
<!DOCTYPE svg PUBLIC "-//W3C//DTD SVG 1.1//EN" "http://www.w3.org/Graphics/SVG/1.1/DTD/svg11.dtd">
<svg version="1.1" id="Layer_1" xmlns="http://www.w3.org/2000/svg" xmlns:xlink="http://www.w3.org/1999/xlink" x="0px" y="0px"
	 width="48px" height="48px" viewBox="0 0 48 48" enable-background="new 0 0 48 48" xml:space="preserve">
<g>
	<g>
		<circle fill="#545454" cx="25" cy="25" r="3.331"/>
		<path fill="#545454" d="M6.147,18.956c-1.016,0.314-1.98,0.718-2.89,1.194c-1.887,2.698-2.555,6.208-1.509,9.596
			c0.494,1.6,1.318,3.002,2.374,4.164c2.093-2.874,5.099-5.121,8.757-6.25c2.44-0.753,4.918-0.918,7.293-0.598
			C19.901,26.43,19.75,25.732,19.75,25c0-1.383,0.546-2.632,1.42-3.57C16.976,18.408,11.469,17.313,6.147,18.956z"/>
	</g>
	<g>
		<circle fill="#545454" cx="24.777" cy="24.738" r="3.33"/>
		<path fill="#545454" d="M28.971,44.086c0.779,0.723,1.611,1.355,2.479,1.906c3.279,0.285,6.652-0.891,9.064-3.491
			c1.139-1.228,1.941-2.644,2.42-4.138c-3.535-0.377-6.984-1.855-9.793-4.459c-1.873-1.736-3.254-3.799-4.164-6.016
			c-0.414,0.551-0.94,1.029-1.574,1.396c-1.198,0.69-2.553,0.843-3.802,0.555C23.082,34.982,24.886,40.299,28.971,44.086z"/>
	</g>
	<g>
		<circle fill="#545454" cx="25.117" cy="24.63" r="3.331"/>
		<path fill="#545454" d="M39.777,11.325c0.236-1.036,0.369-2.073,0.41-3.099c-1.394-2.983-4.097-5.316-7.556-6.105
			C31,1.75,29.373,1.762,27.839,2.095c1.442,3.249,1.886,6.976,1.035,10.709c-0.567,2.49-1.664,4.718-3.128,6.615
			c0.684,0.082,1.361,0.3,1.996,0.665c1.197,0.691,2.007,1.789,2.382,3.016C34.838,20.977,38.54,16.756,39.777,11.325z"/>
	</g>
	<circle fill="#545454" cx="25.117" cy="24.63" r="3.7"/>
</g>
</svg>
