<?xml version="1.0" encoding="utf-8"?>
<!-- Generator: Adobe Illustrator 16.0.0, SVG Export Plug-In . SVG Version: 6.00 Build 0)  -->
<!DOCTYPE svg PUBLIC "-//W3C//DTD SVG 1.1//EN" "http://www.w3.org/Graphics/SVG/1.1/DTD/svg11.dtd">
<svg version="1.1" id="Layer_1" xmlns="http://www.w3.org/2000/svg" xmlns:xlink="http://www.w3.org/1999/xlink" x="0px" y="0px"
	 width="48px" height="48px" viewBox="0 0 48 48" enable-background="new 0 0 48 48" xml:space="preserve">
<g>
	<polygon fill="#7AD3AB" points="17.795,48 30.373,48 31.455,46.59 16.713,46.59 	"/>
	<path fill="#7AD3AB" d="M16.713,41.15c-0.373,0-0.676,0.258-0.676,0.632c0,0.375,0.303,0.7,0.676,0.7l14.742-1.332H16.713z"/>
	<path fill="#7AD3AB" d="M31.455,42.008l-14.742,1.354c-0.373,0-0.676,0.304-0.676,0.678s0.303,0.677,0.676,0.677l14.742-1.354
		c0.374,0,0.676-0.303,0.676-0.676C32.13,42.311,31.828,42.008,31.455,42.008z"/>
	<path fill="#7AD3AB" d="M31.455,44.27l-14.742,1.313h14.742c0.374,0,0.676-0.283,0.676-0.657
		C32.13,44.552,31.828,44.27,31.455,44.27z"/>
	<path fill="#7AD3AB" d="M24,0C15.434,0,8.488,6.953,8.488,15.53c0,4.032,1.535,7.706,4.052,10.466
		c2.53,2.764,4.054,6.494,4.054,10.54c0,0.005,0.029,3.68,0.029,3.68h14.795v-5.262c0.291-3.248,1.643-6.2,3.652-8.546
		c2.748-2.802,4.441-6.641,4.441-10.877C39.512,6.953,32.566,0,24,0z"/>
</g>
</svg>
