<?xml version="1.0" encoding="utf-8"?>
<!-- Generator: Adobe Illustrator 16.0.0, SVG Export Plug-In . SVG Version: 6.00 Build 0)  -->
<!DOCTYPE svg PUBLIC "-//W3C//DTD SVG 1.1//EN" "http://www.w3.org/Graphics/SVG/1.1/DTD/svg11.dtd">
<svg version="1.1" id="Layer_1" xmlns="http://www.w3.org/2000/svg" xmlns:xlink="http://www.w3.org/1999/xlink" x="0px" y="0px"
	 width="48px" height="48px" viewBox="0 0 48 48" enable-background="new 0 0 48 48" xml:space="preserve">
<g>
	<polygon fill="#7AD3AB" points="17.795,48 30.373,48 31.455,46.59 16.713,46.59 	"/>
	<path fill="#7AD3AB" d="M16.713,41.151c-0.373,0-0.676,0.257-0.676,0.631c0,0.375,0.303,0.7,0.676,0.7l14.742-1.331H16.713z"/>
	<path fill="#7AD3AB" d="M31.455,42.008l-14.742,1.354c-0.373,0-0.676,0.303-0.676,0.677c0,0.374,0.303,0.677,0.676,0.677
		l14.742-1.354c0.374,0,0.676-0.303,0.676-0.677C32.13,42.311,31.828,42.008,31.455,42.008z"/>
	<path fill="#7AD3AB" d="M31.455,44.269l-14.742,1.314h14.742c0.374,0,0.676-0.283,0.676-0.657
		C32.13,44.552,31.828,44.269,31.455,44.269z"/>
	<path fill="#7AD3AB" d="M24,0C15.433,0,8.488,6.953,8.488,15.53c0,4.032,1.535,7.706,4.052,10.466
		c2.531,2.764,4.054,6.494,4.054,10.54c0,0.005,0.029,3.68,0.029,3.68h1.729c-0.006-1.121-0.013-3.614-0.013-3.687
		c-0.001-4.376-1.604-8.535-4.512-11.711c-2.318-2.543-3.595-5.841-3.595-9.287c0-3.682,1.432-7.143,4.033-9.746
		c2.6-2.603,6.057-4.037,9.734-4.037c3.677,0,7.134,1.434,9.735,4.037c2.6,2.603,4.033,6.064,4.033,9.746
		c0,3.633-1.4,7.062-3.941,9.653l-0.041,0.042l-0.039,0.044c-2.348,2.739-3.754,6.034-4.067,9.528l-0.007,0.078v5.341h1.745v-5.262
		c0.291-3.248,1.643-6.2,3.653-8.546c2.747-2.802,4.44-6.641,4.44-10.877C39.512,6.953,32.566,0,24,0z"/>
</g>
</svg>
