<?xml version="1.0" encoding="utf-8"?>
<!-- Generator: Adobe Illustrator 16.0.0, SVG Export Plug-In . SVG Version: 6.00 Build 0)  -->
<!DOCTYPE svg PUBLIC "-//W3C//DTD SVG 1.1//EN" "http://www.w3.org/Graphics/SVG/1.1/DTD/svg11.dtd">
<svg version="1.1" id="Layer_1" xmlns="http://www.w3.org/2000/svg" xmlns:xlink="http://www.w3.org/1999/xlink" x="0px" y="0px"
	 width="980px" height="580px" viewBox="0 0 980 580" enable-background="new 0 0 980 580" xml:space="preserve">
<polygon fill="#7AD3AB" points="39,40 39,285 39,293 39,542 776,542 776,534 48,534 48,293 225,293 225,285 48,285 48,49 373,49 
	373,285 351,285 351,293 373,293 381,293 447,293 447,285 381,285 381,49 597,49 597,285 572,285 572,293 597,293 605,293 634,293 
	634,285 605,285 605,49 930,49 930,285 757,285 757,293 930,293 930,534 917,534 917,542 938,542 938,40 "/>
<g>
</g>
<g>
</g>
<g>
</g>
<g>
</g>
<g>
</g>
<g>
</g>
<g>
</g>
<g>
</g>
<g>
</g>
<g>
</g>
<g>
</g>
<g>
</g>
<g>
</g>
<g>
</g>
<g>
</g>
</svg>
