<?xml version="1.0" encoding="utf-8"?>
<!-- Generator: Adobe Illustrator 16.0.0, SVG Export Plug-In . SVG Version: 6.00 Build 0)  -->
<!DOCTYPE svg PUBLIC "-//W3C//DTD SVG 1.1//EN" "http://www.w3.org/Graphics/SVG/1.1/DTD/svg11.dtd">
<svg version="1.1" id="Layer_1" xmlns="http://www.w3.org/2000/svg" xmlns:xlink="http://www.w3.org/1999/xlink" x="0px" y="0px"
	 width="980px" height="580px" viewBox="0 0 980 580" enable-background="new 0 0 980 580" xml:space="preserve">
<g>
	<defs>
		<path id="SVGID_1_" d="M490.387,45.627C355.416,45.627,246,155.043,246,290.014S355.416,534.4,490.387,534.4
			c134.971,0,244.387-109.416,244.387-244.387S625.357,45.627,490.387,45.627z M490.018,461.844
			c-94.852,0-171.745-76.892-171.745-171.744c0-94.852,76.893-171.745,171.745-171.745c94.853,0,171.745,76.894,171.745,171.745
			C661.763,384.952,584.87,461.844,490.018,461.844z"/>
	</defs>
	<clipPath id="SVGID_2_">
		<use xlink:href="#SVGID_1_"  overflow="visible"/>
	</clipPath>
	<g clip-path="url(#SVGID_2_)">
		<circle fill="#7AD3AB" cx="490.107" cy="290.104" r="244.107"/>
		<g opacity="0.2">
			<g>
				<g>
					<g>
						<path fill="#9F9F9F" d="M490.387,290.014l-229.402-83.496c35.553-97.683,125.451-160.63,229.402-160.63V290.014z"/>
					</g>
				</g>
				<g>
					<g>
						<path fill="#404040" d="M490.387,290.014l-232.178,75.438c-17.54-53.982-16.639-105.596,2.775-158.934L490.387,290.014z"/>
					</g>
				</g>
				<g>
					<g>
						<path fill="#808080" d="M490.387,290.014l54.916,237.867c-124.408,28.723-247.638-40.998-287.094-162.43L490.387,290.014z"/>
					</g>
				</g>
				<g>
					<g>
						<path fill="#DFDFDF" d="M490.387,290.014l229.402,83.496c-29.098,79.943-91.592,135.234-174.486,154.371L490.387,290.014z"/>
					</g>
				</g>
				<g>
					<g>
						<path d="M490.387,290.014V45.888c134.826,0,244.125,109.299,244.125,244.126c0,30.74-4.209,54.609-14.723,83.496
							L490.387,290.014z"/>
					</g>
				</g>
			</g>
			<g>
				<g>
				</g>
				<g>
				</g>
				<g>
				</g>
				<g>
				</g>
				<g>
				</g>
			</g>
		</g>
	</g>
</g>
<g>
</g>
<g>
</g>
<g>
</g>
<g>
</g>
<g>
</g>
<g>
</g>
<g>
</g>
<g>
</g>
<g>
</g>
<g>
</g>
<g>
</g>
<g>
</g>
<g>
</g>
<g>
</g>
<g>
</g>
</svg>
