<?xml version="1.0" encoding="utf-8"?>
<!-- Generator: Adobe Illustrator 16.0.0, SVG Export Plug-In . SVG Version: 6.00 Build 0)  -->
<!DOCTYPE svg PUBLIC "-//W3C//DTD SVG 1.1//EN" "http://www.w3.org/Graphics/SVG/1.1/DTD/svg11.dtd">
<svg version="1.1" id="Layer_1" xmlns="http://www.w3.org/2000/svg" xmlns:xlink="http://www.w3.org/1999/xlink" x="0px" y="0px"
	 width="980px" height="580px" viewBox="0 0 980 580" enable-background="new 0 0 980 580" xml:space="preserve">
<g>
	<defs>
		<path id="SVGID_1_" d="M490.387,34.027c-141.377,0-255.986,114.609-255.986,255.986S349.009,546,490.387,546
			c141.377,0,255.986-114.609,255.986-255.986S631.764,34.027,490.387,34.027z M490,470c-99.354,0-179.896-80.542-179.896-179.896
			c0-99.354,80.542-179.896,179.896-179.896c99.354,0,179.896,80.543,179.896,179.896C669.896,389.458,589.354,470,490,470z"/>
	</defs>
	<clipPath id="SVGID_2_">
		<use xlink:href="#SVGID_1_"  overflow="visible"/>
	</clipPath>
	<g clip-path="url(#SVGID_2_)">
		<circle fill="#7AD3AB" cx="490.107" cy="290.104" r="246.475"/>
		<g opacity="0.5">
			<g>
				<g>
					<g>
						<path fill="#9F9F9F" d="M490.387,290.014l-229.402-83.496c35.553-97.683,125.451-160.63,229.402-160.63V290.014z"/>
					</g>
				</g>
				<g>
					<g>
						<path fill="#404040" d="M490.387,290.014l-232.178,75.438c-17.54-53.982-16.639-105.596,2.775-158.934L490.387,290.014z"/>
					</g>
				</g>
				<g>
					<g>
						<path fill="#808080" d="M490.387,290.014l54.916,237.867c-124.408,28.723-247.638-40.998-287.094-162.43L490.387,290.014z"/>
					</g>
				</g>
				<g>
					<g>
						<path fill="#DFDFDF" d="M490.387,290.014l229.402,83.496c-29.098,79.943-91.592,135.234-174.486,154.371L490.387,290.014z"/>
					</g>
				</g>
				<g>
					<g>
						<path d="M490.387,290.014V45.888c134.826,0,244.125,109.299,244.125,244.126c0,30.74-4.209,54.609-14.723,83.496
							L490.387,290.014z"/>
					</g>
				</g>
			</g>
			<g>
				<g>
				</g>
				<g>
				</g>
				<g>
				</g>
				<g>
				</g>
				<g>
				</g>
			</g>
		</g>
	</g>
</g>
<g>
</g>
<g>
</g>
<g>
</g>
<g>
</g>
<g>
</g>
<g>
</g>
<g>
</g>
<g>
</g>
<g>
</g>
<g>
</g>
<g>
</g>
<g>
</g>
<g>
</g>
<g>
</g>
<g>
</g>
</svg>
