<?xml version="1.0" encoding="utf-8"?>
<!-- Generator: Adobe Illustrator 16.0.0, SVG Export Plug-In . SVG Version: 6.00 Build 0)  -->
<!DOCTYPE svg PUBLIC "-//W3C//DTD SVG 1.1//EN" "http://www.w3.org/Graphics/SVG/1.1/DTD/svg11.dtd">
<svg version="1.1" id="Layer_1" xmlns="http://www.w3.org/2000/svg" xmlns:xlink="http://www.w3.org/1999/xlink" x="0px" y="0px"
	 width="48px" height="48px" viewBox="0 0 48 48" enable-background="new 0 0 48 48" xml:space="preserve">
<path fill="#7AD3AB" d="M8,12v33h31V12H8z M23.5,41.171c-7.401,0-13.4-6-13.4-13.4s5.999-13.4,13.4-13.4c7.401,0,13.4,6,13.4,13.4
	S30.901,41.171,23.5,41.171z"/>
<g>
	<path fill="#7AD3AB" d="M32.234,30.844c-1.369,0-2.514-0.898-2.912-2.133c-0.398,1.235-1.543,2.133-2.911,2.133
		s-2.513-0.899-2.911-2.136c-0.398,1.236-1.543,2.136-2.911,2.136c-1.369,0-2.513-0.899-2.911-2.135
		c-0.398,1.235-1.544,2.135-2.912,2.135c-1.698,0-3.072-1.375-3.072-3.073c0,6.52,5.285,11.805,11.805,11.805
		s11.806-5.285,11.806-11.805C35.306,29.469,33.931,30.844,32.234,30.844z"/>
</g>
<path fill="#7AD3AB" d="M23.18,4.007c-5.169,0-10.014,0.63-15.18,1.808V11h31V5.971C33.833,4.689,28.579,4.007,23.18,4.007z
	 M10.5,10.086c-0.875,0-1.583-0.708-1.583-1.583c0-0.875,0.708-1.583,1.583-1.583s1.583,0.708,1.583,1.583
	C12.083,9.378,11.375,10.086,10.5,10.086z M14.5,10.086c-0.875,0-1.583-0.708-1.583-1.583c0-0.875,0.708-1.583,1.583-1.583
	s1.583,0.708,1.583,1.583C16.083,9.378,15.375,10.086,14.5,10.086z M36.5,10.086c-0.875,0-1.583-0.708-1.583-1.583
	c0-0.875,0.708-1.583,1.583-1.583s1.583,0.708,1.583,1.583C38.083,9.378,37.375,10.086,36.5,10.086z"/>
</svg>
